# File created by Blade
# Date/Time:  Tue Apr 07 21:25:43 2015
#---------------------------------------------------------
:version 1.10
:name HOM
:units
  mass 1.0
  length 1.000000
  angle deg
:documentation
     Acclaim Skeleton File
:root
   axis xyz
   order TX TY TZ RX RY RZ
   position 0.000000 0.000000 0.000000
   orientation 0 0 0
:bonedata
   begin
      id 1
      name Spine_dum
      direction 0.000000 1.000000 0.000000
      length 4.885285
      axis 0.0 0.0 0.0 xyz
   end
   begin
      id 2
      name LeftUpLeg_dum
      direction 1.000000 0.000000 0.000000
      length 2.672193
      axis 0.0 0.0 0.0 xyz
   end
   begin
      id 3
      name RightUpLeg_dum
      direction -1.000000 0.000000 0.000000
      length 2.672193
      axis 0.0 0.0 0.0 xyz
   end
   begin
      id 4
      name Spine
      direction 0.000000 1.000000 0.000000
      length 0.000000
      axis 0.0 0.0 0.0 xyz
      dof rx ry rz
   end
   begin
      id 5
      name Spine_dum1
      direction 0.000000 1.000000 0.000000
      length 16.494159
      axis 0.0 0.0 0.0 xyz
   end
   begin
      id 6
      name Spine_dum2
      direction 0.000000 1.000000 0.000000
      length 10.663448
      axis 0.0 0.0 0.0 xyz
   end
   begin
      id 7
      name Spine_dum3
      direction 0.000000 1.000000 0.000000
      length 10.663448
      axis 0.0 0.0 0.0 xyz
   end
   begin
      id 8
      name Head
      direction 0.000000 1.000000 0.000000
      length 4.527550
      axis 0.0 0.0 0.0 xyz
      dof rx ry rz
   end
   begin
      id 9
      name LeftShoulder
      direction 1.000000 0.000000 0.000000
      length 7.531907
      axis 0.0 0.0 -90.0 xyz
      dof rx ry rz
   end
   begin
      id 10
      name LeftArm
      direction 1.000000 0.000000 0.000000
      length 10.229199
      axis 0.0 0.0 -90.0 xyz
      dof rx ry rz
   end
   begin
      id 11
      name LeftForeArm
      direction 1.000000 0.000000 0.000000
      length 8.673495
      axis 0.0 0.0 -90.0 xyz
      dof ry rz rx
   end
   begin
      id 12
      name LeftHand
      direction 0.000000 0.000000 0.000000
      length 0.000000
      axis 0.0 0.0 -90.0 xyz
      dof rx ry rz
   end
   begin
      id 13
      name LeftHand_dum1
      direction 0.000000 0.000000 0.000000
      length 0.000000
      axis 0.0 0.0 -90.0 xyz
   end
   begin
      id 14
      name LeftHand_dum2
      direction 1.000000 0.000000 0.000000
      length 3.937000
      axis 0.0 0.0 -90.0 xyz
   end
   begin
      id 15
      name LeftHandThumb1
      direction 0.000000 0.000000 1.000000
      length 3.937000
      axis 0.0 0.0 -90.0 xyz
      dof rx rz ry
   end
   begin
      id 16
      name RightShoulder
      direction -1.000000 0.000000 0.000000
      length 7.531907
      axis 0.0 0.0 90.0 xyz
      dof rx ry rz
   end
   begin
      id 17
      name RightArm
      direction -1.000000 0.000000 0.000000
      length 10.229199
      axis 0.0 0.0 90.0 xyz
      dof rx ry rz
   end
   begin
      id 18
      name RightForeArm
      direction -1.000000 0.000000 0.000000
      length 8.673495
      axis 0.0 0.0 90.0 xyz
      dof ry rz rx
   end
   begin
      id 19
      name RightHand
      direction 0.000000 0.000000 0.000000
      length 0.000000
      axis 0.0 0.0 90.0 xyz
      dof rx ry rz
   end
   begin
      id 20
      name RightHand_dum1
      direction 0.000000 0.000000 0.000000
      length 0.000000
      axis 0.0 0.0 90.0 xyz
   end
   begin
      id 21
      name RightHand_dum2
      direction -1.000000 0.000000 0.000000
      length 3.937000
      axis 0.0 0.0 90.0 xyz
   end
   begin
      id 22
      name RightHandThumb1
      direction 0.000000 0.000000 1.000000
      length 3.937000
      axis 0.0 0.0 90.0 xyz
      dof rx rz ry
   end
   begin
      id 23
      name LeftUpLeg
      direction 0.000000 -1.000000 0.000000
      length 16.263388
      axis 0.0 0.0 0.0 xyz
      dof rx ry rz
   end
   begin
      id 24
      name LeftLeg
      direction 0.000000 -1.000000 0.000000
      length 14.328163
      axis 0.0 0.0 0.0 xyz
      dof rx ry rz
   end
   begin
      id 25
      name LeftFoot
      direction 0.000000 -0.258819 0.965926
      length 5.031290
      axis 15.0 0.0 0.0 xyz
      dof rx ry rz
   end
   begin
      id 26
      name LeftToeBase
      direction 0.000000 0.000000 1.000000
      length 2.952750
      axis 0.0 0.0 0.0 xyz
      dof rx ry rz
   end
   begin
      id 27
      name RightUpLeg
      direction 0.000000 -1.000000 0.000000
      length 16.263388
      axis 0.0 0.0 0.0 xyz
      dof rx ry rz
   end
   begin
      id 28
      name RightLeg
      direction 0.000000 -1.000000 0.000000
      length 14.328163
      axis 0.0 0.0 0.0 xyz
      dof rx ry rz
   end
   begin
      id 29
      name RightFoot
      direction 0.000000 -0.258819 0.965926
      length 5.031290
      axis 15.0 0.0 0.0 xyz
      dof rx ry rz
   end
   begin
      id 30
      name RightToeBase
      direction 0.000000 0.000000 1.000000
      length 2.952750
      axis 0.0 0.0 0.0 xyz
      dof rx ry rz
   end
:hierarchy
   begin
      root Spine_dum LeftUpLeg_dum RightUpLeg_dum
      Spine_dum Spine
      LeftUpLeg_dum LeftUpLeg
      RightUpLeg_dum RightUpLeg
      Spine Spine_dum1 Spine_dum2 Spine_dum3
      Spine_dum1 Head
      Spine_dum2 LeftShoulder
      Spine_dum3 RightShoulder
      LeftShoulder LeftArm
      LeftArm LeftForeArm
      LeftForeArm LeftHand
      LeftHand LeftHand_dum1 LeftHand_dum2
      LeftHand_dum1 LeftHandThumb1
      RightShoulder RightArm
      RightArm RightForeArm
      RightForeArm RightHand
      RightHand RightHand_dum1 RightHand_dum2
      RightHand_dum1 RightHandThumb1
      LeftUpLeg LeftLeg
      LeftLeg LeftFoot
      LeftFoot LeftToeBase
      RightUpLeg RightLeg
      RightLeg RightFoot
      RightFoot RightToeBase
   end

# File created by Blade
# Date/Time:  Tue Apr 07 21:25:57 2015
# Frame Rate: 120.000 fps
#------------------------------------------------------
:FULLY-SPECIFIED
:DEGREES
128
root 8.821262 32.250756 2.544956 8.118959 -22.094647 2.224277
Spine -3.353898 -7.075372 -2.158651
Head 30.972413 -3.472296 1.348348
LeftShoulder -21.085663 49.120108 3.510085
LeftArm 51.538742 1.571886 -86.095704
LeftForeArm 0.450013 -0.000000 2.369088
LeftHand 4.818742 -0.000000 4.868274
LeftHandThumb1 -26.253704 0.000000 33.147579
RightShoulder -7.840220 -8.448654 -17.551873
RightArm 13.590105 -5.898682 86.347780
RightForeArm 4.961741 -0.000000 8.670403
RightHand 2.399068 -0.000000 3.556967
RightHandThumb1 -24.326973 -0.000000 -32.862282
LeftUpLeg -6.896690 -19.129608 20.451860
LeftLeg 9.544245 -0.000000 -0.000000
LeftFoot 9.572158 1.539874 -24.767233
LeftToeBase -39.157914 -0.000000 0.000000
RightUpLeg -12.162369 10.796567 -19.312928
RightLeg 9.493697 -0.000000 -0.000000
RightFoot -3.013053 -5.600786 13.073393
RightToeBase -14.951137 -0.000000 0.000000
129
root 9.143702 32.199051 2.632346 8.071022 -23.134967 2.177344
Spine -3.326747 -7.016704 -2.078085
Head 30.785950 -3.952524 1.389717
LeftShoulder -21.069511 49.218999 3.497561
LeftArm 51.843640 2.375354 -85.334112
LeftForeArm 0.704415 0.000000 2.265108
LeftHand 4.546681 -0.000000 4.092452
LeftHandThumb1 -26.253704 0.000000 33.147579
RightShoulder -7.768751 -8.361766 -17.545543
RightArm 13.793538 -5.977727 86.255607
RightForeArm 4.937957 -0.000000 8.853972
RightHand 2.577376 -0.000000 3.527777
RightHandThumb1 -24.326973 -0.000000 -32.862282
LeftUpLeg -6.498075 -19.190689 19.790658
LeftLeg 10.014346 -0.000000 -0.000000
LeftFoot 7.747397 1.666963 -25.421540
LeftToeBase -37.868211 -0.000000 0.000000
RightUpLeg -12.467505 10.847196 -19.888809
RightLeg 9.220687 -0.000000 -0.000000
RightFoot -2.310239 -5.347631 13.085900
RightToeBase -15.240483 -0.000000 0.000000
130
root 9.475675 32.151162 2.712338 8.076885 -24.141364 2.160612
Spine -3.337220 -6.952376 -2.012910
Head 30.566340 -4.487172 1.414321
LeftShoulder -20.855091 49.235504 3.645095
LeftArm 52.019028 3.304725 -84.405971
LeftForeArm 0.786148 0.000000 2.301415
LeftHand 4.458620 -0.000000 3.582879
LeftHandThumb1 -26.253704 0.000000 33.147579
RightShoulder -7.730903 -8.321149 -17.501225
RightArm 14.021132 -6.030830 86.144481
RightForeArm 4.659140 -0.000000 9.110960
RightHand 2.429651 -0.000000 3.522822
RightHandThumb1 -24.326973 -0.000000 -32.862282
LeftUpLeg -6.209608 -19.073790 19.079656
LeftLeg 10.442388 -0.000000 -0.000000
LeftFoot 5.931739 1.742063 -25.649260
LeftToeBase -36.500027 -0.000000 0.000000
RightUpLeg -12.822807 10.808448 -20.494795
RightLeg 8.875276 -0.000000 -0.000000
RightFoot -1.495308 -5.153957 13.192656
RightToeBase -15.597429 -0.000000 0.000000
131
root 9.801134 32.105892 2.786081 8.103940 -25.163584 2.080681
Spine -3.314214 -6.919845 -1.919452
Head 30.340176 -4.967620 1.528827
LeftShoulder -20.758618 49.282737 3.710955
LeftArm 52.277562 4.179193 -83.491220
LeftForeArm 1.003542 0.000000 2.354096
LeftHand 4.427695 -0.000000 3.408030
LeftHandThumb1 -26.253704 0.000000 33.147579
RightShoulder -7.679288 -8.240553 -17.405009
RightArm 14.239095 -6.299039 85.944361
RightForeArm 4.465069 -0.000000 9.429910
RightHand 2.381875 -0.000000 3.328102
RightHandThumb1 -24.326973 -0.000000 -32.862282
LeftUpLeg -5.903251 -18.614465 18.411551
LeftLeg 10.777270 -0.000000 -0.000000
LeftFoot 4.190162 1.647476 -25.729712
LeftToeBase -35.431586 -0.000000 0.000000
RightUpLeg -13.182635 10.707146 -20.960239
RightLeg 8.505899 -0.000000 -0.000000
RightFoot -0.671996 -5.230968 13.057749
RightToeBase -15.843979 -0.000000 0.000000
132
root 10.121579 32.064775 2.861668 8.156613 -26.238052 1.973659
Spine -3.322273 -6.824581 -1.833247
Head 30.155686 -5.473905 1.649008
LeftShoulder -20.638335 49.348861 3.818994
LeftArm 52.507627 4.955767 -82.697432
LeftForeArm 1.352019 -0.000000 2.494710
LeftHand 4.374702 0.000000 3.439870
LeftHandThumb1 -26.253704 0.000000 33.147579
RightShoulder -7.619517 -8.251437 -17.244132
RightArm 14.489164 -6.640574 85.685005
RightForeArm 4.111897 0.000000 9.813808
RightHand 2.103905 0.000000 3.242484
RightHandThumb1 -24.326973 -0.000000 -32.862282
LeftUpLeg -5.614038 -17.684933 17.718723
LeftLeg 11.096198 -0.000000 -0.000000
LeftFoot 2.578443 1.463695 -25.508604
LeftToeBase -34.960931 -0.000000 0.000000
RightUpLeg -13.605656 10.619067 -21.383496
RightLeg 8.184561 -0.000000 -0.000000
RightFoot 0.230600 -5.248271 13.116022
RightToeBase -16.250356 -0.000000 0.000000
